<svg width="32" height="32" viewBox="0 0 32 32" fill="none" xmlns="http://www.w3.org/2000/svg">
    <g id="317720_social media_tweet_twitter_social_icon 1">
    <path id="Vector" d="M31.993 6.077C30.816 6.6 29.552 6.953 28.223 7.11C29.578 6.298 30.619 5.012 31.11 3.48C29.841 4.231 28.437 4.779 26.942 5.072C25.744 3.797 24.038 3 22.149 3C18.524 3 15.587 5.938 15.587 9.563C15.587 10.077 15.644 10.579 15.756 11.059C10.301 10.785 5.46498 8.172 2.22698 4.201C1.66298 5.171 1.33898 6.298 1.33898 7.501C1.33898 9.779 2.49798 11.787 4.25798 12.965C3.18298 12.93 2.17098 12.636 1.28598 12.144C1.28498 12.171 1.28498 12.2 1.28498 12.226C1.28498 15.407 3.54698 18.06 6.54998 18.663C5.99998 18.812 5.41998 18.893 4.82098 18.893C4.39698 18.893 3.98698 18.852 3.58698 18.776C4.42098 21.382 6.84598 23.28 9.71698 23.334C7.47198 25.094 4.64198 26.145 1.56698 26.145C1.03698 26.145 0.513977 26.114 0.000976562 26.053C2.90498 27.913 6.35498 29 10.062 29C22.134 29 28.737 18.999 28.737 10.325C28.737 10.041 28.729 9.757 28.717 9.475C30 8.55 31.112 7.395 31.993 6.077Z" fill="#55ACEE"/>
    </g>
    </svg>
    